<?xml version="1.0" encoding="UTF-8" standalone="no"?>
<svg width="128px" height="25px" viewBox="0 0 128 25" version="1.1" xmlns="http://www.w3.org/2000/svg" xmlns:xlink="http://www.w3.org/1999/xlink">
    <!-- Generator: Sketch 40.1 (33804) - http://www.bohemiancoding.com/sketch -->
    <title>logo-white</title>
    <desc>Created with Sketch.</desc>
    <defs></defs>
    <g id="website" stroke="none" stroke-width="1" fill="none" fill-rule="evenodd">
        <g id="Artboard-2" transform="translate(-18.000000, -19.000000)" fill="#FFFFFF">
            <path d="M49.6144414,32.5004452 L51.1840205,32.5004452 C51.4582867,32.5004452 52.4172613,32.458381 53.2474429,31.9205592 C54.1555565,31.332752 54.6160393,30.3650007 54.6160393,29.045166 C54.6160393,28.0940765 54.2646614,27.4057521 53.5714762,26.9998592 C53.0888443,26.7166082 52.451442,26.5732073 51.6764965,26.5732073 L48.7093356,26.5732073 C48.3410041,26.5732073 48.174749,26.7248026 48.1348259,27.0949135 L47.232728,35.697876 C47.2332749,35.9876824 47.4512113,36.105954 47.9847041,36.105954 L48.4492886,36.105954 C48.9915317,36.105954 49.2567742,35.9748446 49.2835719,35.6935057 L49.6144414,32.5004452 L49.6144414,32.5004452 Z M50.0659004,28.3071293 L51.4033241,28.3071293 C51.732006,28.3071293 52.4971075,28.4073733 52.4971075,29.3314215 C52.4971075,29.8569517 52.3393292,30.2453634 52.0281478,30.4854575 C51.7423969,30.7058852 51.3893783,30.7523198 51.1435505,30.7523198 L49.800658,30.7523198 L50.0659004,28.3071293 L50.0659004,28.3071293 Z M59.4787268,35.7893794 C59.1965307,35.5077673 59.0595343,35.0792034 59.0595343,34.4807436 C59.0595343,34.2960979 59.159342,33.3379066 59.2479385,32.492524 C59.3152062,31.8459908 59.3737236,31.2868637 59.3737236,31.2030084 C59.3737236,30.7250053 59.1235206,30.4922861 58.6080752,30.4922861 C58.18232,30.4922861 57.7792608,30.7586021 57.4098355,31.2824934 L57.4057338,31.2882295 L56.9400555,35.6932325 C56.9075155,36.034117 56.4683615,36.1056809 56.1057723,36.1056809 L55.7232215,36.1056809 C55.3767656,36.1056809 54.9726127,36.0021591 54.9712455,35.7109869 L55.9690493,26.2478921 C56.0015894,25.9070076 56.4407434,25.8354437 56.8033326,25.8354437 L57.1858834,25.8354437 C57.5323392,25.8354437 57.9364922,25.9389655 57.9378594,26.2301377 L57.5605042,29.85941 L57.6160137,29.800684 C58.0171587,29.3764904 58.7792523,28.8810061 59.6058791,28.8810061 C60.818338,28.8810061 61.3832771,29.422925 61.3832771,30.5881599 C61.3832771,30.7465837 61.2837428,31.7094185 61.1956932,32.5594445 C61.1163939,33.329166 61.0414698,34.0562769 61.0414698,34.1663542 C61.0414698,34.496586 61.1762786,34.6443572 61.4789831,34.6443572 C61.608323,34.6443572 61.7201624,34.608029 61.7939927,34.5839923 C61.8298141,34.5722471 61.8607135,34.5621407 61.8754796,34.5621407 C61.933997,34.5621407 61.9575134,34.5670573 61.9575134,34.6853289 C61.9575134,34.6875141 61.9490365,34.9948018 61.8620808,35.4998461 C61.780047,36.0046174 61.1139329,36.1876242 60.6857167,36.1876242 C60.1421064,36.1878974 59.7469771,36.0570611 59.4787268,35.7893794 L59.4787268,35.7893794 Z M69.477821,31.8580091 C69.477821,29.9102149 68.4611493,28.8812792 66.5382781,28.8812792 C65.2309336,28.8812792 64.2476223,29.3314215 63.615689,30.2196878 C63.0945012,30.9522616 62.8191412,31.9907574 62.8191412,33.2237321 C62.8191412,35.1630588 63.8358129,36.1878974 65.758684,36.1878974 C66.8959453,36.1878974 67.8360521,35.8005783 68.4775561,35.0685508 C69.1316385,34.3223197 69.477821,33.2119869 69.477821,31.8580091 L69.477821,31.8580091 Z M65.923025,34.6443572 C65.1773382,34.6443572 64.8152959,34.1483266 64.8152959,33.1281315 C64.8152959,32.2622631 64.9536595,31.5867765 65.2257381,31.1205187 C65.4920743,30.6649135 65.8888443,30.4237268 66.3739372,30.4237268 C67.10978,30.4237268 67.4677206,30.9241277 67.4677206,31.9538829 C67.4677206,33.6640412 66.9046956,34.6443572 65.923025,34.6443572 L65.923025,34.6443572 Z M74.385627,29.2360941 C74.385627,29.7662677 74.1130015,30.5335309 73.6199786,30.5335309 L73.198872,30.5335309 L73.1961376,30.5581139 C73.1567614,30.9230351 72.8133134,34.1256556 72.8133134,34.1666273 C72.8133134,34.4968591 72.9481222,34.6446304 73.2511002,34.6446304 C73.4261055,34.6446304 73.5713053,34.6077559 73.6672848,34.5837191 C73.7137706,34.5719739 73.7506858,34.5624138 73.7703739,34.5624138 C73.8288913,34.5624138 73.8524076,34.5673305 73.8524076,34.6856021 C73.8524076,34.6877872 73.8439308,34.9950749 73.756975,35.5001193 C73.7121299,35.7765416 73.3621192,36.1878974 72.580611,36.1878974 C72.0246956,36.1878974 71.5942918,36.0450428 71.3008844,35.7631575 C70.9888827,35.463791 70.8305576,35.004635 70.8305576,34.3985271 C70.8305576,34.1029846 71.2229524,30.5990856 71.2267806,30.56385 L71.2303354,30.5335309 L70.9265371,30.5335309 C70.6962957,30.5335309 70.5981286,30.3947735 70.5981286,30.0694582 C70.5981286,29.3434399 70.7594617,28.9902639 71.0906046,28.9902639 L71.3886605,28.9902639 L71.5281179,27.668244 C71.560658,27.3273596 71.999812,27.2557957 72.3624012,27.2557957 L72.7449519,27.2557957 C73.2984063,27.2557957 73.4961077,27.468029 73.496928,27.6504896 L73.3571972,28.9899908 L74.1942149,28.9899908 C74.36047,28.9899908 74.385627,29.0454391 74.385627,29.2360941 L74.385627,29.2360941 Z M81.659013,31.8580091 C81.659013,29.9102149 80.6426148,28.8812792 78.7194702,28.8812792 C77.4126725,28.8812792 76.4293612,29.3314215 75.7971545,30.2196878 C75.2762401,30.9522616 75.0006067,31.9907574 75.0006067,33.2237321 C75.0006067,35.1630588 76.0170049,36.1878974 77.9401495,36.1878974 C79.0774108,36.1878974 80.0177911,35.8005783 80.6590216,35.0685508 C81.3133775,34.3223197 81.659013,33.2119869 81.659013,31.8580091 L81.659013,31.8580091 Z M78.104217,34.6443572 C77.3590771,34.6443572 76.9970348,34.1483266 76.9970348,33.1281315 C76.9970348,32.2622631 77.1348515,31.5867765 77.4072036,31.1205187 C77.6735398,30.6649135 78.0705832,30.4237268 78.5554027,30.4237268 C79.2912455,30.4237268 79.6491861,30.9241277 79.6491861,31.9538829 C79.6491861,33.6640412 79.0864345,34.6443572 78.104217,34.6443572 L78.104217,34.6443572 Z M89.5339799,27.0919089 C89.5339799,27.9097039 89.3731938,28.3071293 89.0417774,28.3071293 L85.5720231,28.3071293 L85.347524,30.3423297 L88.44047,30.3423297 C88.6028968,30.3423297 88.768605,30.4037872 88.768605,30.8613045 C88.768605,31.6790994 88.6075454,32.0765248 88.2764025,32.0765248 L85.1755266,32.0765248 L84.9234095,34.3438982 L88.3994531,34.3438982 C88.5616065,34.3438982 88.7275881,34.4053557 88.7275881,34.8623266 C88.7275881,35.6806679 88.5662551,36.0780933 88.2351122,36.0780933 L83.2039821,36.0780933 C82.8474087,36.0780933 82.7391241,35.9819464 82.7391241,35.6683764 C82.7418586,35.5610305 83.6187994,27.179042 83.6278231,27.0940941 C83.6674728,26.7239831 83.8340013,26.5723879 84.2020594,26.5723879 L89.2063918,26.5723879 C89.3679983,26.5729342 89.5339799,26.6346648 89.5339799,27.0919089 L89.5339799,27.0919089 Z M89.9302029,33.2515929 C89.9302029,35.0898561 90.7992138,36.1878974 92.2544926,36.1878974 C92.9993591,36.1878974 93.6857082,35.7994858 94.0906815,35.1491285 L94.1243153,35.0947727 L94.1404486,35.1567765 C94.3231104,35.8598507 94.8144926,36.1878974 95.6865114,36.1878974 C96.1141807,36.1878974 96.7808417,36.0048905 96.862602,35.5001193 C96.9492843,34.9948018 96.9580346,34.6875141 96.9580346,34.6856021 C96.9580346,34.5670573 96.9342448,34.5624138 96.8760009,34.5624138 C96.8612348,34.5624138 96.8306088,34.5725202 96.7947874,34.5842654 C96.7206836,34.6083021 96.6082974,34.6446304 96.4795044,34.6446304 C96.1770733,34.6446304 96.0417176,34.4968591 96.0417176,34.1666273 C96.0417176,34.030055 96.8396326,26.5693833 96.8760009,26.2304108 C96.8746336,25.9392387 96.4704807,25.8357169 96.1240248,25.8357169 L95.7412006,25.8357169 C95.3786114,25.8357169 94.9394574,25.9072808 94.9069173,26.2481652 C94.9058235,26.261003 94.7680068,27.5535233 94.56511,29.4171889 L94.5596411,29.4674475 L94.5205383,29.4349433 C94.214279,29.1825577 93.7152403,28.8818255 93.0748302,28.8818255 C92.1628883,28.8818255 91.3791925,29.2978247 90.8087844,30.0858469 C90.2340013,30.8785126 89.9302029,31.9732761 89.9302029,33.2515929 L89.9302029,33.2515929 Z M92.3488314,31.1202455 C92.6274728,30.658358 93.0280709,30.4239999 93.5394147,30.4239999 C93.8495022,30.4239999 94.1450972,30.5365355 94.4182696,30.7580558 L94.4294809,30.7670696 L94.4278402,30.7820925 C94.3575646,31.546078 94.2804529,32.2838416 94.2181072,32.8760191 C94.1822858,33.2169035 94.1516599,33.5108071 94.1270498,33.7593687 L94.1265029,33.765651 L94.1229481,33.7711139 C93.7781329,34.3217735 93.4174578,34.5894552 93.0198675,34.5894552 C92.2941423,34.5894552 91.9260842,34.098068 91.9260842,33.1281315 C91.9266311,32.2608974 92.0685495,31.5854108 92.3488314,31.1202455 L92.3488314,31.1202455 Z M98.7625037,26.2478921 C98.7950438,25.9070076 99.2341978,25.8354437 99.596787,25.8354437 L99.9793377,25.8354437 C100.326067,25.8354437 100.73022,25.9389655 100.731314,26.2295914 L100.608537,27.348938 C100.575997,27.6892762 100.136843,27.76084 99.7742534,27.76084 L99.3917026,27.76084 C99.0452467,27.76084 98.6410938,27.6578645 98.6397266,27.3666924 L98.7625037,26.2478921 L98.7625037,26.2478921 Z M98.4340953,29.3751247 C98.4666353,29.0342402 98.9057894,28.9626763 99.2683786,28.9626763 L99.6512027,28.9626763 C99.9973852,28.9626763 100.401538,29.0661981 100.403179,29.3573703 C100.380209,29.5690573 99.897304,34.030055 99.897304,34.166081 C99.897304,34.4963129 100.031839,34.6440841 100.334817,34.6440841 C100.463884,34.6440841 100.575723,34.6077559 100.649827,34.5837191 C100.685648,34.5719739 100.716548,34.5618676 100.73104,34.5618676 C100.789558,34.5618676 100.813348,34.5667842 100.813348,34.6850558 C100.813348,34.6872409 100.804871,34.9945286 100.717642,35.499573 C100.635881,36.0043442 99.9694937,36.1873511 99.541551,36.1873511 C98.9973937,36.1873511 98.601991,36.0565148 98.3340141,35.7888331 C98.051818,35.507221 97.9148216,35.0786572 97.9148216,34.4801973 C97.9150951,34.1040772 98.4291733,29.4226518 98.4340953,29.3751247 L98.4340953,29.3751247 Z M105.625994,29.2360941 C105.625994,29.7662677 105.353642,30.5335309 104.86062,30.5335309 L104.439239,30.5335309 L104.436778,30.5581139 C104.397402,30.9230351 104.053681,34.1256556 104.053681,34.1666273 C104.053681,34.4968591 104.188763,34.6446304 104.491468,34.6446304 C104.666746,34.6446304 104.811673,34.6077559 104.907652,34.5837191 C104.954411,34.5719739 104.991053,34.5624138 105.010741,34.5624138 C105.069259,34.5624138 105.093048,34.5673305 105.093048,34.6856021 C105.093048,34.6877872 105.084572,34.9950749 104.997616,35.5001193 C104.952771,35.7765416 104.60276,36.1878974 103.821252,36.1878974 C103.265336,36.1878974 102.834933,36.0450428 102.541525,35.7631575 C102.22925,35.463791 102.070925,35.004635 102.070925,34.3985271 C102.070925,34.1029846 102.463593,30.5990856 102.467421,30.56385 L102.470976,30.5335309 L102.166905,30.5335309 C101.936937,30.5335309 101.838769,30.3947735 101.838769,30.0694582 C101.838769,29.3434399 101.999829,28.9902639 102.331245,28.9902639 L102.629301,28.9902639 L102.768759,27.668244 C102.801025,27.3273596 103.240453,27.2557957 103.602769,27.2557957 L103.985319,27.2557957 C104.539047,27.2557957 104.736475,27.468029 104.737295,27.6504896 L104.597838,28.9899908 L105.434856,28.9899908 C105.600837,28.9899908 105.625994,29.0454391 105.625994,29.2360941 L105.625994,29.2360941 Z M113.063721,31.8580091 C113.063721,29.9102149 112.04705,28.8812792 110.124179,28.8812792 C108.817107,28.8812792 107.833796,29.3314215 107.201863,30.2196878 C106.680675,30.9522616 106.405315,31.9907574 106.405315,33.2237321 C106.405315,35.1630588 107.421987,36.1878974 109.344858,36.1878974 C110.482119,36.1878974 111.422226,35.8005783 112.06373,35.0685508 C112.718086,34.3223197 113.063721,33.2119869 113.063721,31.8580091 L113.063721,31.8580091 Z M109.508925,34.6443572 C108.763512,34.6443572 108.40147,34.1483266 108.40147,33.1281315 C108.40147,32.2622631 108.53956,31.5867765 108.811912,31.1205187 C109.078248,30.6649135 109.475018,30.4237268 109.960111,30.4237268 C110.695954,30.4237268 111.053894,30.9241277 111.053894,31.9538829 C111.054168,33.6640412 110.490869,34.6443572 109.508925,34.6443572 L109.508925,34.6443572 Z M118.633813,30.2751361 C118.500372,30.5840627 118.374313,30.7247322 118.313882,30.7247322 C118.265208,30.7247322 118.221184,30.7072509 118.165401,30.684853 C118.072976,30.6474322 117.957582,30.6015439 117.753044,30.6015439 C117.139158,30.6015439 116.701372,31.096482 116.541679,31.3089885 L116.536757,31.3152708 L116.53621,31.323192 C116.387456,33.091257 116.101431,35.6667375 116.098697,35.6929594 C116.066157,36.0338438 115.627003,36.1054077 115.264414,36.1054077 L114.881589,36.1054077 C114.535134,36.1054077 114.130981,36.0018859 114.129613,35.7107138 L114.594198,31.232508 C114.642051,30.7719862 114.64916,30.4253657 114.64916,30.25984 C114.64916,30.0762869 114.640684,29.9227796 114.633027,29.7867536 C114.627011,29.6785883 114.621816,29.5851729 114.621816,29.4955814 C114.621816,29.2262609 115.276992,29.0309625 116.180184,29.0309625 C116.51871,29.0309625 116.549609,29.402166 116.588712,29.8717016 L116.596642,29.970853 L116.640393,29.9069372 C116.963606,29.4289341 117.43448,28.8810061 118.217355,28.8810061 C118.631626,28.8810061 118.832608,29.077397 118.832608,29.4816511 C118.833429,29.6862364 118.756864,29.9902463 118.633813,30.2751361 L118.633813,30.2751361 Z M122.593036,35.3406028 C122.593036,34.5643259 122.727024,34.4807436 122.784721,34.4807436 C122.809605,34.4807436 122.882068,34.524993 122.966289,34.5774368 C123.28294,34.7721889 123.941124,35.1769892 124.999633,35.1769892 C125.542149,35.1769892 126.044469,34.9972601 126.413894,34.670306 C126.797812,34.3305141 127.00946,33.8508722 127.00946,33.3201522 C127.00946,32.350762 126.1358,32.0003175 125.210733,31.6296602 C124.132536,31.1969992 123.017424,30.7498615 123.017424,29.3046534 C123.017424,28.4824881 123.330793,27.7788676 123.923623,27.2699992 C124.517548,26.7605845 125.338979,26.4915371 126.298774,26.4915371 C126.699919,26.4915371 127.224935,26.5789433 127.636744,26.7149694 C128.122931,26.8755784 128.390908,27.0777054 128.390908,27.2831101 C128.390908,27.4489089 128.013553,27.9938324 127.898432,27.9938324 C127.843469,27.9938324 127.760615,27.9468515 127.646315,27.8829357 C127.37533,27.7302479 126.921683,27.4748576 126.162051,27.4748576 C125.623909,27.4748576 125.136629,27.6215363 124.7899,27.8883986 C124.399419,28.1888576 124.192967,28.631625 124.192967,29.1683542 C124.192967,29.9525524 124.956975,30.2530114 125.841572,30.6007245 C126.946567,31.0350244 128.198675,31.5280504 128.198675,33.128951 C128.198675,34.0401614 127.878744,34.808244 127.273061,35.350436 C126.680231,35.8806097 125.856065,36.1608561 124.889981,36.1608561 C124.276915,36.1600366 122.593036,35.9658308 122.593036,35.3406028 L122.593036,35.3406028 Z M136.669481,27.4418072 C136.031532,26.8651989 135.12752,26.572661 133.982329,26.572661 L131.042512,26.572661 C130.767426,26.572661 130.644649,26.684104 130.618398,26.9577949 C129.702628,35.7246441 129.702628,35.7516855 129.702628,35.7779073 C129.702628,35.9939647 129.798607,36.0783664 130.044435,36.0783664 L132.983978,36.0783664 C134.325777,36.0783664 135.466046,35.6500757 136.282008,34.8402019 C137.25985,33.8686266 137.755881,32.3876365 137.755881,30.4379303 C137.755881,29.1014338 137.390011,28.093257 136.669481,27.4418072 L136.669481,27.4418072 Z M135.454834,34.0857765 C134.668404,34.919687 133.684546,35.0950458 132.997924,35.0950458 L130.916727,35.0950458 L130.920009,35.0647268 L131.70179,27.5559816 L133.777244,27.5559816 C134.62602,27.5559816 135.293775,27.7848768 135.761914,28.2366579 C136.295954,28.7515355 136.566392,29.5564927 136.566392,30.6288584 C136.566392,32.1407138 136.192318,33.3037635 135.454834,34.0857765 L135.454834,34.0857765 Z M146,26.682192 C146,26.7562142 145.947772,26.8466251 145.843042,26.95042 L142.026832,31.1879854 L145.608972,35.7396671 C145.692373,35.8505638 145.69921,35.8986373 145.69921,35.9390627 C145.688545,36.0617046 145.534048,36.1054077 145.111301,36.1054077 L145.015595,36.1054077 C144.63113,36.1054077 144.414834,36.0791858 144.298893,35.9385164 L140.853476,31.5408882 L140.845546,31.5302356 L140.752574,31.5302356 L140.299201,35.8284391 C140.274044,36.0046174 140.074429,36.1054077 139.751762,36.1054077 L139.642384,36.1054077 C139.235497,36.1054077 139.151002,35.9966962 139.150455,35.833902 L140.09357,26.8206763 C140.106969,26.6382157 140.290724,26.5453466 140.640461,26.5453466 L140.74984,26.5453466 C141.005238,26.5453466 141.241222,26.5783971 141.242316,26.8168523 L140.804802,30.994599 L140.801521,31.0249181 L140.898594,31.0249181 L144.693749,26.7278072 C144.802034,26.6081698 145.055245,26.5453466 145.42549,26.5453466 L145.562213,26.5453466 C145.881325,26.5456197 146,26.6294751 146,26.682192 L146,26.682192 Z M42.5721171,29.4873871 L42.8988849,29.1342111 L42.5245375,28.8312938 C42.451254,28.7720214 40.8305405,27.469941 39.035642,26.6477758 C39.0979876,26.4942685 39.158966,26.3350252 39.219671,26.1719579 C39.7058577,24.8616832 39.9615296,23.7415172 39.972194,23.69399 L40.0785644,23.2244545 L39.6027686,23.149886 C39.5499936,23.1414185 38.2847597,22.9444812 36.7879171,22.9444812 C36.324153,22.9444812 35.8910147,22.9630551 35.4890493,23.0010222 C35.2634565,21.406404 34.8412561,20.0379495 34.8218415,19.9751262 L34.6788293,19.515697 L34.2290109,19.6877781 C34.1415082,19.7219212 32.2016834,20.4725226 30.5916343,21.614267 C29.6135185,20.3627184 28.5771587,19.3987911 28.4989532,19.3266809 L28.1453877,19 L27.8421363,19.373935 C27.7631104,19.4714476 26.4743602,21.0761721 25.657304,22.8598064 C24.1615552,22.2575226 22.7634266,21.9384897 22.6994403,21.924013 L22.2293869,21.8177597 L22.1544627,22.2930314 C22.1394232,22.3859005 21.8211322,24.4385822 22.0054347,26.4019456 C20.4197223,26.6253779 19.0538603,27.0452012 18.9764751,27.0692379 L18.5162658,27.2115462 L18.689357,27.6608691 C18.7057637,27.704026 19.0997992,28.7225822 19.7495065,29.8992892 C20.0368981,30.4199028 20.3262038,30.885068 20.6168767,31.2942387 C19.3469942,32.286573 18.3716129,33.3365409 18.3273147,33.3843412 L18,33.7386097 L18.3743474,34.0409808 C18.4476308,34.1002532 20.0683444,35.4023335 21.8629695,36.2244988 C21.8008972,36.3785523 21.7396454,36.5372493 21.6792138,36.7003167 C21.1927537,38.0111376 20.9370818,39.1313036 20.9264174,39.1782845 L20.820047,39.6478201 L21.2958428,39.7229349 C21.3488913,39.7308561 22.6138517,39.9277933 24.1106943,39.9277933 C24.5747319,39.9277933 25.0078701,39.9092195 25.4095621,39.8717987 C25.6351549,41.4658706 26.0573553,42.8348713 26.0770434,42.8971483 L26.2197821,43.3565775 L26.6696005,43.1842233 C26.7573766,43.1500802 28.696928,42.3994788 30.3069771,41.2577344 C31.2853664,42.509283 32.3214527,43.4732103 32.3996582,43.5453205 L32.7534971,43.8717283 L33.0564751,43.4977933 C33.135501,43.4002807 34.4245247,41.7961024 35.2415809,40.0119219 C36.7370562,40.6142057 38.1354582,40.9332386 38.1991711,40.9477153 L38.6692245,41.0539685 L38.7444221,40.5786969 C38.7591882,40.4858277 39.0777526,38.433146 38.8934501,36.4697826 C40.4788891,36.2468966 41.8447511,35.8268002 41.9221363,35.8030366 L42.3823457,35.660182 L42.2095279,35.2108591 C42.1928477,35.1682486 41.7988122,34.1491461 41.1493783,32.9724391 C40.8617133,32.4518255 40.5724076,31.9866602 40.2820081,31.5774896 C41.5521641,30.5851553 42.5275454,29.5351874 42.5721171,29.4873871 L42.5721171,29.4873871 Z M38.9708353,23.9758753 C38.8532536,24.4148186 38.6519974,25.1083328 38.3736296,25.858661 C37.8067763,27.3860857 37.1734758,28.4781178 36.5355266,29.0323282 L30.1043538,29.0323282 L32.062226,25.6409648 L32.236411,25.3399594 C32.6102115,25.0007138 33.0250288,24.6961576 33.4390258,24.4577023 C34.1333048,24.0569992 35.291348,23.8453121 36.7879171,23.8453121 C37.6684127,23.845039 38.4786328,23.918788 38.9708353,23.9758753 L38.9708353,23.9758753 Z M31.317633,32.9388423 L29.5812519,32.9388423 L28.7125144,31.4360007 L29.5812519,29.9331591 L31.317633,29.9331591 L32.186097,31.4360007 L31.317633,32.9388423 L31.317633,32.9388423 Z M34.0952959,20.7194453 C34.2366674,21.2449755 34.4562444,22.1466258 34.5951549,23.1244835 C33.9511899,23.2465792 33.4138688,23.4312249 32.9875668,23.6770551 C32.7018159,23.8414881 32.4166118,24.0335088 32.1420722,24.2446496 C31.9224952,23.6120466 31.5508823,22.9578653 31.125674,22.3405585 C32.1907456,21.5891377 33.4390258,21.0037888 34.0952959,20.7194453 L34.0952959,20.7194453 Z M28.242461,20.3337651 C28.5645802,20.6555294 29.065533,21.1766894 29.5766033,21.7923573 C30.6170647,23.046091 31.247084,24.139762 31.4086905,24.9687559 L31.2859133,25.1815355 L28.1929673,30.5324384 L26.0579022,26.842801 C25.9504379,26.3492287 25.8938347,25.8381752 25.8938347,25.3607184 C25.8938347,24.5008592 26.3450203,23.2992961 27.1981713,21.8860459 C27.588652,21.2395126 27.9826875,20.6836633 28.242461,20.3337651 L28.242461,20.3337651 Z M22.981363,22.9248148 C23.5085665,23.0657574 24.4013672,23.3271568 25.3179577,23.6950826 C25.1186157,24.2670474 24.9922837,24.8357345 24.9922837,25.3607184 C24.9922837,25.6898577 25.0158,26.032381 25.0617389,26.3754506 C24.6830164,26.3022479 24.255894,26.2651002 23.7820124,26.2651002 C23.4921598,26.2651002 23.1968383,26.2784843 22.9023371,26.302521 C22.7831147,25.0053573 22.8998761,23.6349908 22.981363,22.9248148 L22.981363,22.9248148 Z M19.7210681,27.7949831 C20.5400385,27.575648 22.2704038,27.1664774 23.7820124,27.1664774 C24.4057424,27.1664774 24.9231019,27.2358561 25.3228797,27.3729747 L28.5386029,32.9366572 L24.2720273,32.9388423 C23.7904892,32.7847888 23.319342,32.5782914 22.9050716,32.3392899 C22.1596582,31.9099066 21.3434223,30.9186648 20.544687,29.474003 C20.1793634,28.8135394 19.8944328,28.1945937 19.7210681,27.7949831 L19.7210681,27.7949831 Z M19.3352361,33.6410971 C19.7205213,33.2559632 20.3921043,32.615166 21.1706046,32.0065998 C21.5982739,32.5015378 22.027037,32.874107 22.4536125,33.1204835 C22.7388165,33.2849165 23.0475369,33.4351461 23.3674685,33.5670749 C22.9671438,34.0270504 22.5851399,34.6388943 22.223918,35.3985095 C21.0404443,34.8530397 19.9102927,34.0666564 19.3352361,33.6410971 L19.3352361,33.6410971 Z M21.9280496,38.8969456 C22.0461782,38.4552708 22.249075,37.7562937 22.5288101,37.0035072 C23.0942961,35.4820917 23.7262294,34.3930642 24.3628114,33.8404927 L30.7945311,33.8399464 L28.8188849,37.2616288 L28.6627473,37.532042 C28.2889468,37.8712876 27.8741295,38.1758438 27.4601325,38.4142991 C26.76558,38.8150022 25.6075369,39.0266893 24.1109677,39.0266893 C23.2304721,39.0269624 22.4205255,38.9534865 21.9280496,38.8969456 L21.9280496,38.8969456 Z M26.8033155,42.1528293 C26.661944,41.627299 26.4426405,40.7256487 26.30373,39.7483373 C26.9474215,39.6256954 27.485016,39.4410496 27.9113181,39.1957658 C28.197069,39.0307864 28.482273,38.8387658 28.7568126,38.627625 C28.9763897,39.2602279 29.3480026,39.9144092 29.7729374,40.531716 C28.7078658,41.2836831 27.4601325,41.8684857 26.8033155,42.1528293 L26.8033155,42.1528293 Z M32.6566973,42.5385094 C32.3345781,42.2172914 31.8336253,41.6961315 31.322555,41.0804635 C30.2818201,39.8261835 29.6518009,38.7325125 29.4901944,37.9035187 L29.5798846,37.7483725 L32.7059175,32.3398362 L34.8412561,36.0294735 C34.9484469,36.5230458 35.0050502,37.0340994 35.0050502,37.5121024 C35.0050502,38.3714154 34.554138,39.5729785 33.700987,40.9867749 C33.3102329,41.6324888 32.9161974,42.1886112 32.6566973,42.5385094 L32.6566973,42.5385094 Z M37.9177953,39.9477329 C37.3908652,39.8067903 36.4988849,39.5459372 35.5809272,39.1769188 C35.7802692,38.604954 35.9068746,38.0362669 35.9068746,37.5118293 C35.9068746,37.1821438 35.8830848,36.8396204 35.8374194,36.4965508 C36.2158684,36.5697535 36.6432643,36.6069012 37.1171459,36.6069012 C37.4067251,36.6069012 37.7020466,36.5935171 37.9968212,36.5700267 C38.1157701,37.8666441 37.9990088,39.23783 37.9177953,39.9477329 L37.9177953,39.9477329 Z M41.1778167,35.0770183 C40.3580261,35.2963534 38.6260201,35.7060703 37.1171459,35.7060703 C36.4934159,35.7060703 35.975783,35.6361453 35.5762786,35.4990267 L32.3605554,29.9353442 L36.6268575,29.9331591 C37.1081222,30.0872126 37.5795428,30.29371 37.9940867,30.5327115 C38.7392267,30.9626411 39.5554625,31.9533366 40.3541978,33.3979984 C40.7195215,34.0587352 41.0041786,34.6774077 41.1778167,35.0770183 L41.1778167,35.0770183 Z M39.7282803,30.8656748 C39.3008844,30.3707367 38.8721213,29.9981675 38.4452724,29.7523374 C38.1600684,29.587358 37.8516214,29.4371285 37.5316898,29.3051996 C37.9317411,28.8452241 38.3137449,28.2333802 38.6749669,27.4737651 C39.858714,28.0189617 40.9888656,28.8058913 41.5633753,29.2311775 C41.1783636,29.6163113 40.5067806,30.2571086 39.7282803,30.8656748 L39.7282803,30.8656748 Z" id="logo-white"></path>
        </g>
    </g>
</svg>