<?xml version="1.0" encoding="UTF-8"?>
<svg width="136px" height="48px" viewBox="0 0 136 48" version="1.1" xmlns="http://www.w3.org/2000/svg" xmlns:xlink="http://www.w3.org/1999/xlink">
    <!-- Generator: Sketch 40 (33762) - http://www.bohemiancoding.com/sketch -->
    <title>footer_logo</title>
    <desc>Created with Sketch.</desc>
    <defs></defs>
    <g id="Symbols" stroke="none" stroke-width="1" fill="none" fill-rule="evenodd">
        <g id="footer" transform="translate(-655.000000, -603.000000)" fill="#FFFFFF">
            <g id="imgly_Logo_W" transform="translate(655.000000, 603.000000)">
                <g id="Ebene_1">
                    <path d="M59.1551906,12.6133561 C59.2254013,11.88314 60.1729511,11.7297185 60.9547091,11.7297185 L61.7807177,11.7297185 C62.5276654,11.7297185 63.4002844,11.951067 63.4032344,12.5752935 L63.1377317,14.9738221 C63.067521,15.7046238 62.1199712,15.8580453 61.3382131,15.8580453 L60.5122046,15.8580453 C59.7652569,15.8580453 58.8926379,15.6361111 58.8896878,15.0124703 L59.1551906,12.6133561 L59.1551906,12.6133561 Z M57.3261717,30.2632709 C57.3261717,31.5474441 57.6217647,32.4650452 58.230651,33.0687764 C58.809447,33.6438143 59.6620058,33.9231351 60.8367079,33.9231351 C61.7600675,33.9231351 63.1979123,33.5307977 63.3743241,32.4498202 C63.561356,31.3653292 63.5802362,30.7077248 63.5802362,30.7024546 C63.5802362,30.4483137 63.5294957,30.4383588 63.4032344,30.4383588 C63.3713741,30.4383588 63.3047034,30.4600252 63.2280026,30.4852051 C63.068111,30.536736 62.8262085,30.6146179 62.5477256,30.6146179 C61.8951789,30.6146179 61.6037158,30.2989912 61.6037158,29.5898559 C61.6037158,29.2982379 62.6456666,19.7339879 62.6952271,19.2807503 C62.6922771,18.6565239 61.8202481,18.4345897 61.0727104,18.4345897 L60.2467018,18.4345897 C59.4643538,18.4345897 58.516804,18.5885968 58.4465933,19.3188129 C58.4353831,19.4207035 57.3261717,29.4557585 57.3261717,30.2632709 L57.3261717,30.2632709 Z M86.3556513,33.9231351 C87.2784208,33.9231351 88.7168557,33.5307977 88.8932675,32.4498202 C89.0797094,31.3653292 89.0991796,30.7077248 89.0991796,30.7024546 C89.0991796,30.4483137 89.0478491,30.4383588 88.9221778,30.4383588 C88.8897275,30.4383588 88.8236468,30.4600252 88.746946,30.4852051 C88.5870544,30.536736 88.3445618,30.6146179 88.066669,30.6146179 C87.4141222,30.6146179 87.1220692,30.2989912 87.1220692,29.5898559 C87.1220692,29.3544534 87.2843209,27.7956441 87.4560127,26.1448989 C87.6448146,24.3231649 87.8595768,22.2584159 87.8595768,21.9187805 C87.8595768,19.4218747 86.6418043,18.2589162 84.0245373,18.2589162 C82.161298,18.2589162 80.2626584,19.382641 79.350509,20.4917262 L79.2791183,20.5778062 L79.247848,20.4706454 C78.8153735,18.9821054 77.6176611,18.2583307 75.5880402,18.2583307 C73.7525312,18.2583307 71.9547827,19.4166045 71.0603334,20.4911406 L70.9647525,20.6064996 L70.9559024,20.4571771 C70.8945417,19.3937669 70.7907007,18.5798131 70.0708932,18.5798131 C68.1221031,18.5798131 66.7078585,18.9990872 66.7078585,19.5752962 C66.7078585,19.7673659 66.7190686,19.9682192 66.7320488,20.2006938 C66.7485689,20.4911406 66.7668591,20.8208212 66.7668591,21.2143298 C66.7668591,21.5691902 66.751519,22.3117035 66.6482679,23.2995741 L65.6458476,32.8995443 C65.6482076,33.5237708 66.5208266,33.7457049 67.2683643,33.7457049 L68.0943728,33.7457049 C68.8767209,33.7457049 69.8236807,33.5922834 69.8938914,32.8614817 L70.8396712,23.4483109 L70.8485213,23.4360138 C71.6302793,22.2923794 72.5005383,21.7126569 73.434518,21.7126569 C74.5460894,21.7126569 75.086535,22.210984 75.086535,23.2351604 C75.086535,23.5267784 74.1572754,32.4755856 74.113615,32.8995443 C74.115975,33.5237708 74.988004,33.7457049 75.7361317,33.7457049 L76.5615502,33.7457049 C77.3433083,33.7457049 78.2914481,33.5922834 78.3610688,32.8614817 L79.2773483,23.419032 L79.2861984,23.4067349 C79.7186728,22.7737248 80.6302322,21.7120713 81.872195,21.7120713 C82.9837665,21.7120713 83.5242121,22.2103985 83.5242121,23.2345749 C83.5242121,23.4155185 83.3985408,24.6130261 83.2522193,25.9990899 C83.0622373,27.8120403 82.8457051,29.8662488 82.8457051,30.2615142 C82.8457051,31.5456873 83.1418881,32.4632885 83.7501844,33.0670197 C84.3283904,33.6443999 85.1803592,33.9231351 86.3556513,33.9231351 L86.3556513,33.9231351 Z M91.1341106,37.8757885 C91.1341106,35.6295102 91.5052245,35.3870808 91.6645261,35.3870808 C91.749487,35.3870808 91.9335689,35.4866291 92.1678013,35.6125285 C92.8008778,35.953335 93.97912,36.5869307 95.6470672,36.5869307 C97.9174107,36.5869307 99.2997949,35.2371728 99.5411074,32.7876989 L99.6490785,31.7231176 L99.5263573,31.8648275 C98.5941476,32.9504896 97.2984943,33.5723738 95.9721606,33.5723738 C92.8321482,33.5723738 90.9571088,31.3067714 90.9571088,27.5104674 C90.9571088,24.8009968 91.6126056,22.4826924 92.8527984,20.8038394 C94.0823711,19.1384548 95.7733285,18.2583307 97.7421788,18.2583307 C99.400686,18.2583307 100.646189,19.2022828 101.242095,19.764438 L101.309946,19.8294372 L101.338856,19.7398437 C101.649199,18.7590001 101.7436,18.4626975 103.199735,18.4340042 L103.553739,18.4340042 C104.6482,18.4340042 105.203986,18.6600374 105.206346,19.1050769 L103.997423,31.0180813 C103.366117,37.075303 100.994292,39.895448 96.5332564,39.895448 C93.4551946,39.895448 91.1341106,39.027621 91.1341106,37.8757885 L91.1341106,37.8757885 Z M99.9747619,28.4210417 L99.982432,28.4093301 L100.367116,24.9702289 C100.398976,24.7137456 100.426117,24.4648748 100.452667,24.2247877 C100.524058,23.5718679 100.590728,22.9558396 100.72053,22.4001258 L100.72879,22.3649911 L100.700469,22.341568 C100.053823,21.8133764 99.4331363,21.5674335 98.7457792,21.5674335 C97.6430578,21.5674335 96.7786989,22.0604904 96.1768927,23.0337215 C95.5721364,24.0122228 95.2653333,25.4299078 95.2653333,27.2475428 C95.2653333,29.1711674 96.0594815,30.1455697 97.6253576,30.1455697 C98.440156,30.1455697 99.2307642,29.5658472 99.9747619,28.4210417 L99.9747619,28.4210417 Z M111.135317,30.1695784 C111.134727,29.7409351 110.945925,29.2970668 109.542301,29.2970668 L108.597701,29.2970668 C107.440109,29.2970668 106.824733,29.5945405 106.768092,30.18129 L106.503179,32.87495 C106.503179,33.6116075 107.039495,33.7474617 108.095606,33.7474617 L109.040205,33.7474617 C110.197797,33.7474617 110.813174,33.4499879 110.869814,32.8632385 L111.135317,30.1695784 L111.135317,30.1695784 Z M113.643433,30.2632709 C113.643433,31.5474441 113.939616,32.4650452 114.547912,33.0687764 C115.126118,33.6438143 115.979267,33.9231351 117.153379,33.9231351 C118.076739,33.9231351 119.514584,33.5307977 119.691585,32.4498202 C119.878617,31.3653292 119.897498,30.7077248 119.897498,30.7024546 C119.897498,30.4483137 119.846757,30.4383588 119.720496,30.4383588 C119.688635,30.4383588 119.621965,30.4600252 119.544674,30.4852051 C119.384782,30.536736 119.14347,30.6146179 118.864987,30.6146179 C118.21244,30.6146179 117.920977,30.2989912 117.920977,29.5898559 C117.920977,29.4709835 119.642615,13.1684843 119.720496,12.4294845 C119.719906,12.1156145 119.579484,11.7004395 118.392982,11.7004395 L116.977557,11.7004395 C115.853006,11.7004395 115.578653,12.017823 115.501362,12.5290328 C115.482482,12.695337 113.643433,29.3690929 113.643433,30.2632709 L113.643433,30.2632709 Z M135.535609,19.5272788 C135.552719,19.4663787 135.572779,19.4060641 135.59284,19.3463351 C135.63709,19.2116521 135.67957,19.083996 135.67957,18.9908891 C135.67957,18.5312101 134.780991,18.4345897 134.026963,18.4345897 L133.319546,18.4345897 C132.350166,18.4345897 131.838631,18.6137767 131.662219,19.0143122 L129.332285,24.4309113 C129.067372,25.0727051 128.535777,26.7134954 128.154043,27.9672185 L128.141653,28.0093801 L127.92748,28.0093801 L127.86494,27.4729904 C127.731008,26.3164733 127.579377,25.0071203 127.450755,24.4203709 L126.300244,19.0031862 C126.205843,18.6266594 125.688407,18.4345897 124.765048,18.4345897 L123.820448,18.4345897 C122.181411,18.4345897 121.990839,18.8362964 121.990839,19.1372837 C121.990839,19.2491291 122.09704,19.7134927 125.441195,33.7334078 L125.445915,33.753903 L123.04813,38.6628057 C122.939569,38.8501908 122.876438,39.0469451 122.876438,39.1933396 C122.876438,39.5435154 123.432814,39.7203601 124.529045,39.7203601 L125.030551,39.7203601 C125.98695,39.7203601 126.513826,39.5364885 126.687878,39.1406376 L135.535609,19.5272788 L135.535609,19.5272788 Z M30.4307441,8.84047524 C29.5374749,9.35227066 28.6430256,10.0046049 27.8358973,10.7324787 L27.4606534,11.3772003 L23.2362098,18.6477402 L37.1131531,18.6477402 C38.4896373,17.4596019 39.8555014,15.1184599 41.078584,11.8444918 C41.6792102,10.2364939 42.1134547,8.74912503 42.3671573,7.80751516 C41.3045563,7.68571488 39.5569583,7.52760875 37.6571387,7.52760875 C34.4280353,7.52760875 31.9293596,7.98201749 30.4307441,8.84047524 L30.4307441,8.84047524 Z M39.2613652,19.2333185 C39.9510824,19.5155672 40.6171992,19.8388064 41.2325756,20.1919101 C42.1535751,20.7195162 43.0787046,21.5182449 44.0014742,22.5793128 C45.6806315,21.2740588 47.1302765,19.9002922 47.961005,19.0752124 C46.7208122,18.1628814 44.2823171,16.476416 41.7281807,15.3076017 C40.9493727,16.9360949 40.1251342,18.2477903 39.2613652,19.2333185 L39.2613652,19.2333185 Z M2.60900693,19.5952059 C4.33241472,22.6923294 6.09358289,24.8168074 7.7019395,25.737922 C8.59579872,26.250303 9.61237921,26.6930002 10.6513799,27.0232663 L19.856655,27.0185817 L12.9181833,15.0909378 C12.0561844,14.7963919 10.9398929,14.647655 9.59408903,14.647655 C6.33312537,14.647655 2.59956683,15.5248513 0.832498593,15.9950706 C1.20656245,16.8523572 1.82075879,18.178692 2.60900693,19.5952059 L2.60900693,19.5952059 Z M40.0944538,42.0492049 C40.2702756,40.5267014 40.5222082,37.587684 40.2655556,34.8085295 C39.629529,34.8588892 38.9923225,34.8875826 38.367506,34.8875826 C37.3456155,34.8875826 36.4234359,34.8073583 35.6068675,34.6510089 C35.7053985,35.3864953 35.7567291,36.1208104 35.7567291,36.8276034 C35.7567291,37.9519137 35.4835562,39.1710877 35.0534418,40.3972886 C37.0329122,41.1878192 38.9581021,41.7470465 40.0944538,42.0492049 L40.0944538,42.0492049 Z M45.3519981,28.008209 C43.6285903,24.9110855 41.8674221,22.7866075 40.2590655,21.8649073 C39.3646163,21.3525263 38.3480358,20.9098291 37.3096251,20.5801485 L28.1043501,20.5848332 L35.0428217,32.5124771 C35.9048206,32.8064374 37.0211121,32.9563454 38.366916,32.9563454 C41.6225696,32.9563454 45.3602582,32.077978 47.1285064,31.6077586 C46.7544426,30.750472 46.1402462,29.4241372 45.3519981,28.008209 L45.3519981,28.008209 Z M7.86655119,5.55420995 C7.69072938,7.07671347 7.43879678,10.0151453 7.69544943,12.7948853 C8.33147599,12.74394 8.96868257,12.7146611 9.59349902,12.7146611 C10.6153896,12.7146611 11.5375691,12.7948853 12.3541375,12.9518203 C12.2556065,12.216334 12.204276,11.4820188 12.204276,10.7758114 C12.204276,9.65091558 12.4774488,8.43115603 12.9075632,7.20554069 C10.9310428,6.41676676 9.00408294,5.85636835 7.86655119,5.55420995 L7.86655119,5.55420995 Z M8.69963979,28.3695108 C8.00992267,28.087262 7.3438058,27.7646084 6.72842945,27.4120903 C5.80742994,26.8838987 4.88230039,26.0851699 3.95953087,25.0241021 C2.28037354,26.3287705 0.83131858,27.7025371 0,28.5282025 C1.24078281,29.441119 3.67927798,31.1269989 6.23282433,32.2958131 C7.01222238,30.6673199 7.83646088,29.355039 8.69963979,28.3695108 L8.69963979,28.3695108 Z M22.5205324,43.3005857 C21.603663,41.9771788 20.8012547,40.5753044 20.3280698,39.2185195 C19.7357037,39.6711715 19.1203274,40.0834186 18.503771,40.4365223 C17.5839515,40.9623716 16.4245895,41.3582225 15.0357152,41.6211472 C15.3348483,43.7163462 15.8092132,45.6493401 16.1142463,46.7759927 C17.5302609,46.1664058 20.2230487,44.9132682 22.5205324,43.3005857 L22.5205324,43.3005857 Z M28.7427367,47.6028293 C29.3032425,46.8527035 30.1534412,45.6610517 30.9953799,44.2755735 C32.8361989,41.2446203 33.809119,38.6692471 33.809119,36.8264322 C33.809119,35.8016703 33.6869877,34.7060533 33.4557053,33.6479134 L28.8489378,25.737922 L22.1045782,37.333543 L21.9110562,37.6661515 C22.2591597,39.4433816 23.6191238,41.788037 25.864687,44.4770124 C26.9674083,45.7969059 28.0477095,46.9147748 28.7427367,47.6028293 L28.7427367,47.6028293 Z M17.5302609,38.762354 C18.4247102,38.2511442 19.3191594,37.5982244 20.1256977,36.8709362 L20.4625912,36.2912137 L24.7253852,28.9556746 L10.848442,28.9568458 C9.4749078,30.1414706 8.11140372,32.4761712 6.89068112,35.7378422 C6.28710489,37.351696 5.84932037,38.8496052 5.59384774,39.7970708 C6.6564487,39.9182855 8.40463675,40.0763917 10.3038664,40.0763917 C13.5335597,40.0752205 16.0322355,39.6213974 17.5302609,38.762354 L17.5302609,38.762354 Z M25.4404726,4.3022436 C26.357342,5.6256505 27.1597503,7.02811048 27.6329352,8.38430977 C28.2253013,7.93224334 28.8412677,7.51999623 29.457234,7.16747811 C30.3770535,6.64045766 31.5364155,6.24519232 32.9252898,5.98285325 C32.6255667,3.8870686 32.1517919,1.95407471 31.8467587,0.826836527 C30.4307441,1.43642351 27.7379563,2.69073218 25.4404726,4.3022436 L25.4404726,4.3022436 Z M19.2188584,0 C18.6583526,0.750125772 17.8075638,1.94119199 16.9656251,3.32784135 C15.1248061,6.35762335 14.1518861,8.93358219 14.1518861,10.7769826 C14.1518861,11.801159 14.2740173,12.896776 14.5052997,13.9543303 L19.1120673,21.8649073 L25.7856261,10.3928433 L26.0505389,9.93667778 C25.7024353,8.15944771 24.3424713,5.81479229 22.0969081,3.126988 C20.9941867,1.80650898 19.9132955,0.689225632 19.2188584,0 L19.2188584,0 Z" id="Shape"></path>
                </g>
            </g>
        </g>
    </g>
</svg>