<?xml version="1.0" encoding="UTF-8"?>
<svg width="215px" height="42px" viewBox="0 0 215 42" version="1.1" xmlns="http://www.w3.org/2000/svg" xmlns:xlink="http://www.w3.org/1999/xlink">
    <!-- Generator: Sketch 40 (33762) - http://www.bohemiancoding.com/sketch -->
    <title>pesdk_navbar_logo</title>
    <desc>Created with Sketch.</desc>
    <defs>
        <linearGradient x1="100%" y1="0%" x2="0%" y2="37.1179135%" id="linearGradient-1">
            <stop stop-color="#9A1F7E" offset="0%"></stop>
            <stop stop-color="#FF7695" offset="100%"></stop>
        </linearGradient>
    </defs>
    <g id="Symbols" stroke="none" stroke-width="1" fill="none" fill-rule="evenodd">
        <g id="navbar" transform="translate(-219.000000, -19.000000)" fill="url(#linearGradient-1)">
            <g id="Group-3">
                <g transform="translate(219.000000, 19.000000)">
                    <path d="M52.648084,22.4825284 L55.2619317,22.4825284 C55.718672,22.4825284 57.3156692,22.412478 58.6981852,21.516834 C60.2104828,20.5379484 60.9773329,18.9263351 60.9773329,16.7283912 C60.9773329,15.1445251 60.3921771,13.9982464 59.2378036,13.3223059 C58.4340682,12.8506031 57.372591,12.611795 56.0820606,12.611795 L51.1407956,12.611795 C50.5274066,12.611795 50.2505391,12.8642493 50.1840544,13.4806015 L48.6817751,27.8072659 C48.6826858,28.2898856 49.045619,28.4868454 49.934054,28.4868454 L50.7077347,28.4868454 C51.6107417,28.4868454 52.0524546,28.2685066 52.0970813,27.7999879 L52.648084,22.4825284 L52.648084,22.4825284 Z M53.3999068,15.4993257 L55.6271418,15.4993257 C56.1745016,15.4993257 57.4486385,15.6662639 57.4486385,17.2050976 C57.4486385,18.0802723 57.1858876,18.727101 56.6676718,19.1269339 C56.1918058,19.494016 55.6039177,19.5713443 55.1945364,19.5713443 L52.9581938,19.5713443 L53.3999068,15.4993257 L53.3999068,15.4993257 Z M69.0752516,27.9596482 C68.6053055,27.4906746 68.3771631,26.7769797 68.3771631,25.780354 C68.3771631,25.4728602 68.5433746,23.8771675 68.6909159,22.4693371 C68.8029379,21.3926539 68.900388,20.4615298 68.900388,20.321884 C68.900388,19.5258571 68.4837206,19.1383057 67.6253403,19.1383057 C66.9163227,19.1383057 66.2451012,19.5818064 65.6298907,20.4542519 L65.6230601,20.4638042 L64.8475579,27.7995331 C64.7933684,28.367214 64.0620375,28.4863906 63.4582113,28.4863906 L62.8211429,28.4863906 C62.2441838,28.4863906 61.5711408,28.3139939 61.5688639,27.8290998 L63.2305242,12.0700419 C63.2847138,11.502361 64.0160447,11.3831844 64.6198708,11.3831844 L65.2569393,11.3831844 C65.8338983,11.3831844 66.5069414,11.5555811 66.5092182,12.0404752 L65.8808019,18.0843661 L65.9732428,17.9865685 C66.6412767,17.2801515 67.9104045,16.4550128 69.2870006,16.4550128 C71.3061297,16.4550128 72.2469327,17.3574799 72.2469327,19.297966 C72.2469327,19.561792 72.0811765,21.1652176 71.934546,22.5807808 C71.8024875,23.8626116 71.677715,25.0734822 71.677715,25.2567958 C71.677715,25.8067366 71.9022145,26.0528227 72.4063137,26.0528227 C72.6217056,26.0528227 72.8079537,25.9923246 72.9309047,25.9522958 C72.9905587,25.9327363 73.042016,25.915906 73.0666062,25.915906 C73.1640563,25.915906 73.2032184,25.9240937 73.2032184,26.1210535 C73.2032184,26.1246925 73.1891019,26.6364241 73.0442929,27.4774833 C72.9076806,28.3180877 71.7983892,28.6228523 71.0852732,28.6228523 C70.1799894,28.6233072 69.5219737,28.4054232 69.0752516,27.9596482 L69.0752516,27.9596482 Z M85.7269187,21.4126682 C85.7269187,18.1689724 84.0338376,16.4554677 80.8316465,16.4554677 C78.6545026,16.4554677 77.0169771,17.2050976 75.9646074,18.684343 C75.0966642,19.904311 74.6381024,21.6337363 74.6381024,23.6870308 C74.6381024,26.9166255 76.3311836,28.6233072 79.5333747,28.6233072 C81.4272759,28.6233072 82.9928522,27.978298 84.06116,26.7592397 C85.150415,25.516528 85.7269187,23.6674712 85.7269187,21.4126682 L85.7269187,21.4126682 Z M79.8070546,26.0528227 C78.5652492,26.0528227 77.9623338,25.2267742 77.9623338,23.5278254 C77.9623338,22.0858796 78.1927532,20.9609798 78.6458505,20.1845125 C79.0893849,19.4257851 79.7501328,19.0241327 80.5579666,19.0241327 C81.7833785,19.0241327 82.3794632,19.8574592 82.3794632,21.5723285 C82.3794632,24.4202852 81.4418478,26.0528227 79.8070546,26.0528227 L79.8070546,26.0528227 Z M93.8999742,17.0463471 C93.8999742,17.9292546 93.4459662,19.2069915 92.6249266,19.2069915 L91.9236504,19.2069915 L91.9190966,19.24793 C91.8535227,19.8556397 91.2815728,25.1890198 91.2815728,25.2572506 C91.2815728,25.8071915 91.5060722,26.0532775 92.0106268,26.0532775 C92.3020663,26.0532775 92.54387,25.9918697 92.7037063,25.951841 C92.7811199,25.9322814 92.8425954,25.9163609 92.8753824,25.9163609 C92.9728324,25.9163609 93.0119946,25.9245486 93.0119946,26.1215084 C93.0119946,26.1251474 92.997878,26.636879 92.853069,27.4779382 C92.7783877,27.9382692 92.1955087,28.6233072 90.8940494,28.6233072 C89.9682737,28.6233072 89.2515148,28.3854089 88.7628983,27.9159804 C88.2433164,27.4174402 87.9796547,26.6527995 87.9796547,25.6434374 C87.9796547,25.1512654 88.6331166,19.3161609 88.6394919,19.2574823 L88.6454117,19.2069915 L88.139491,19.2069915 C87.756066,19.2069915 87.5925867,18.9759162 87.5925867,18.4341631 C87.5925867,17.225112 87.8612574,16.6369618 88.4127155,16.6369618 L88.9090734,16.6369618 L89.1413142,14.4353789 C89.1955037,13.867698 89.9268346,13.7485214 90.5306608,13.7485214 L91.1677292,13.7485214 C92.0894066,13.7485214 92.4186421,14.1019574 92.4200082,14.4058122 L92.187312,16.636507 L93.5812123,16.636507 C93.8580798,16.636507 93.8999742,16.7288461 93.8999742,17.0463471 L93.8999742,17.0463471 Z M106.012472,21.4126682 C106.012472,18.1689724 104.319846,16.4554677 101.117199,16.4554677 C98.9409662,16.4554677 97.3034407,17.2050976 96.2506157,18.684343 C95.3831279,19.904311 94.9241107,21.6337363 94.9241107,23.6870308 C94.9241107,26.9166255 96.6167365,28.6233072 99.819383,28.6233072 C101.713284,28.6233072 103.279316,27.978298 104.347168,26.7592397 C105.436879,25.516528 106.012472,23.6674712 106.012472,21.4126682 L106.012472,21.4126682 Z M100.092607,26.0528227 C98.8517129,26.0528227 98.2487975,25.2267742 98.2487975,23.5278254 C98.2487975,22.0858796 98.4783061,20.9609798 98.9318587,20.1845125 C99.3753932,19.4257851 100.036596,19.0241327 100.843975,19.0241327 C102.069387,19.0241327 102.665472,19.8574592 102.665472,21.5723285 C102.665472,24.4202852 101.728311,26.0528227 100.092607,26.0528227 L100.092607,26.0528227 Z M119.126792,13.4755979 C119.126792,14.8374862 118.859032,15.4993257 118.307119,15.4993257 L112.528876,15.4993257 L112.155014,18.8885807 L117.305751,18.8885807 C117.576243,18.8885807 117.8522,18.990927 117.8522,19.7528385 C117.8522,21.1147268 117.583985,21.7765662 117.032526,21.7765662 L111.868583,21.7765662 L111.448728,25.5524629 L117.237445,25.5524629 C117.507482,25.5524629 117.783894,25.6548092 117.783894,26.4158109 C117.783894,27.7786089 117.515223,28.4404484 116.963765,28.4404484 L108.585336,28.4404484 C107.991528,28.4404484 107.8112,28.2803333 107.8112,27.7581397 C107.815753,27.5793748 109.276138,13.6207023 109.291166,13.4792369 C109.357195,12.8628847 109.634518,12.6104304 110.247451,12.6104304 L118.581254,12.6104304 C118.85038,12.6113402 119.126792,12.7141414 119.126792,13.4755979 L119.126792,13.4755979 Z M119.786629,23.7334278 C119.786629,26.7947197 121.233808,28.6233072 123.65731,28.6233072 C124.897749,28.6233072 126.040738,27.9764785 126.715147,26.893427 L126.771158,26.8029074 L126.798025,26.9061635 C127.102215,28.0770053 127.920523,28.6233072 129.372711,28.6233072 C130.084916,28.6233072 131.195118,28.3185426 131.331275,27.4779382 C131.475629,26.6364241 131.490201,26.1246925 131.490201,26.1215084 C131.490201,25.9240937 131.450583,25.9163609 131.353589,25.9163609 C131.328998,25.9163609 131.277996,25.9331912 131.218342,25.9527507 C131.094936,25.9927795 130.907777,26.0532775 130.693296,26.0532775 C130.189652,26.0532775 129.964242,25.8071915 129.964242,25.2572506 C129.964242,25.0298144 131.293024,12.6054268 131.353589,12.04093 C131.351312,11.556036 130.678269,11.3836393 130.10131,11.3836393 L129.463786,11.3836393 C128.85996,11.3836393 128.128629,11.5028159 128.074439,12.0704968 C128.072618,12.0918758 127.843109,14.2443325 127.505221,17.3479276 L127.496114,17.4316241 L127.430995,17.3774943 C126.920976,16.9571921 126.089919,16.4563774 125.023432,16.4563774 C123.504759,16.4563774 122.199657,17.1491483 121.249747,18.4614554 C120.29255,19.7814954 119.786629,21.6046244 119.786629,23.7334278 L119.786629,23.7334278 Z M123.814414,20.1840576 C124.27844,19.4148682 124.945563,19.0245876 125.797113,19.0245876 C126.313507,19.0245876 126.805767,19.2119951 127.260686,19.5808967 L127.279356,19.5959075 L127.276624,19.6209255 C127.159592,20.8932038 127.031177,22.1218145 126.927352,23.1079781 C126.867698,23.675659 126.816696,24.1651018 126.775712,24.5790357 L126.774801,24.5894978 L126.768881,24.5985953 C126.194655,25.5156182 125.594016,25.9613933 124.931902,25.9613933 C123.723339,25.9613933 123.110405,25.1430776 123.110405,23.5278254 C123.111316,22.0836052 123.347655,20.9587055 123.814414,20.1840576 L123.814414,20.1840576 Z M134.495215,12.0700419 C134.549404,11.502361 135.280735,11.3831844 135.884561,11.3831844 L136.52163,11.3831844 C137.099044,11.3831844 137.772087,11.5555811 137.773909,12.0395654 L137.569446,13.903633 C137.515256,14.4704041 136.783925,14.5895807 136.180099,14.5895807 L135.543031,14.5895807 C134.966072,14.5895807 134.293029,14.4180938 134.290752,13.9331997 L134.495215,12.0700419 L134.495215,12.0700419 Z M133.948311,17.2778772 C134.0025,16.7101963 134.733831,16.5910197 135.337657,16.5910197 L135.975181,16.5910197 C136.551685,16.5910197 137.224728,16.7634164 137.22746,17.2483105 C137.189208,17.6008367 136.385018,25.0298144 136.385018,25.2563409 C136.385018,25.8062818 136.609062,26.0523678 137.113616,26.0523678 C137.328553,26.0523678 137.514801,25.9918697 137.638207,25.951841 C137.697861,25.9322814 137.749319,25.9154512 137.773453,25.9154512 C137.870904,25.9154512 137.910521,25.9236389 137.910521,26.1205987 C137.910521,26.1242376 137.896405,26.6359692 137.75114,27.4770285 C137.614983,28.3176329 136.505236,28.6223974 135.792576,28.6223974 C134.886381,28.6223974 134.22791,28.4045135 133.781644,27.9587384 C133.311697,27.4897649 133.083555,26.7760699 133.083555,25.7794443 C133.08401,25.1530848 133.940114,17.357025 133.948311,17.2778772 L133.948311,17.2778772 Z M145.925106,17.0463471 C145.925106,17.9292546 145.471554,19.2069915 144.650514,19.2069915 L143.948783,19.2069915 L143.944684,19.24793 C143.87911,19.8556397 143.306705,25.1890198 143.306705,25.2572506 C143.306705,25.8071915 143.53166,26.0532775 144.035759,26.0532775 C144.327654,26.0532775 144.569002,25.9918697 144.728838,25.951841 C144.806707,25.9322814 144.867728,25.9163609 144.900515,25.9163609 C144.997965,25.9163609 145.037582,25.9245486 145.037582,26.1215084 C145.037582,26.1251474 145.023466,26.636879 144.878657,27.4779382 C144.803975,27.9382692 144.221096,28.6233072 142.919637,28.6233072 C141.993861,28.6233072 141.277102,28.3854089 140.788486,27.9159804 C140.268449,27.4174402 140.004787,26.6527995 140.004787,25.6434374 C140.004787,25.1512654 140.658704,19.3161609 140.665079,19.2574823 L140.670999,19.2069915 L140.164623,19.2069915 C139.781654,19.2069915 139.618174,18.9759162 139.618174,18.4341631 C139.618174,17.225112 139.88639,16.6369618 140.438303,16.6369618 L140.934661,16.6369618 L141.166902,14.4353789 C141.220636,13.867698 141.952422,13.7485214 142.555793,13.7485214 L143.192861,13.7485214 C144.114994,13.7485214 144.443774,14.1019574 144.44514,14.4058122 L144.2129,16.636507 L145.6068,16.636507 C145.883212,16.636507 145.925106,16.7288461 145.925106,17.0463471 L145.925106,17.0463471 Z M158.311284,21.4126682 C158.311284,18.1689724 156.618203,16.4554677 153.416011,16.4554677 C151.239323,16.4554677 149.601797,17.2050976 148.549428,18.684343 C147.681485,19.904311 147.222923,21.6337363 147.222923,23.6870308 C147.222923,26.9166255 148.916004,28.6233072 152.118195,28.6233072 C154.012096,28.6233072 155.577673,27.978298 156.64598,26.7592397 C157.735691,25.516528 158.311284,23.6674712 158.311284,21.4126682 L158.311284,21.4126682 Z M152.39142,26.0528227 C151.15007,26.0528227 150.547154,25.2267742 150.547154,23.5278254 C150.547154,22.0858796 150.777118,20.9609798 151.230671,20.1845125 C151.674205,19.4257851 152.334953,19.0241327 153.142787,19.0241327 C154.368199,19.0241327 154.964284,19.8574592 154.964284,21.5723285 C154.964739,24.4202852 154.026668,26.0528227 152.39142,26.0528227 L152.39142,26.0528227 Z M167.587255,18.7766821 C167.365033,19.2911429 167.155105,19.5254022 167.054468,19.5254022 C166.973411,19.5254022 166.900096,19.4962904 166.807199,19.4589908 C166.653283,19.3966733 166.461115,19.3202547 166.120495,19.3202547 C165.09818,19.3202547 164.369126,20.1444837 164.103188,20.4983745 L164.094991,20.5088366 L164.09408,20.5220279 C163.846357,23.4664176 163.370035,27.7554104 163.365482,27.7990782 C163.311292,28.3667591 162.579961,28.4859357 161.976135,28.4859357 L161.338611,28.4859357 C160.761652,28.4859357 160.088609,28.313539 160.086332,27.8286449 L160.860013,20.3710102 C160.939703,19.6040952 160.951543,19.026862 160.951543,18.7512092 C160.951543,18.4455349 160.937426,18.1898966 160.924676,17.96337 C160.914658,17.7832405 160.906006,17.6276741 160.906006,17.478476 C160.906006,17.0299717 161.997082,16.7047378 163.501183,16.7047378 C164.064936,16.7047378 164.116394,17.3229096 164.181512,18.1048354 L164.194718,18.2699541 L164.267578,18.163514 C164.80583,17.3674871 165.589984,16.4550128 166.893721,16.4550128 C167.583612,16.4550128 167.918312,16.7820662 167.918312,17.4552775 C167.919679,17.795977 167.792174,18.3022501 167.587255,18.7766821 L167.587255,18.7766821 Z M174.180618,27.2122927 C174.180618,25.919545 174.403751,25.780354 174.499835,25.780354 C174.541274,25.780354 174.661948,25.8540434 174.802204,25.9413789 C175.329527,26.265703 176.425613,26.939824 178.188366,26.939824 C179.091828,26.939824 179.928351,26.6405179 180.543561,26.0960355 C181.182906,25.5301742 181.535366,24.731418 181.535366,23.8476008 C181.535366,22.2332582 180.080446,21.6496568 178.539915,21.0323948 C176.744374,20.3118768 174.887359,19.5672505 174.887359,17.1605201 C174.887359,15.7913538 175.409217,14.6196023 176.396469,13.7721748 C177.385541,12.9238376 178.753485,12.4757882 180.351849,12.4757882 C181.019883,12.4757882 181.894201,12.6213474 182.579994,12.8478739 C183.38965,13.1153389 183.835916,13.4519446 183.835916,13.7940087 C183.835916,14.0701163 183.2075,14.9775869 183.015787,14.9775869 C182.924257,14.9775869 182.786279,14.8993489 182.595933,14.7929087 C182.144657,14.538635 181.389191,14.1133292 180.124162,14.1133292 C179.227985,14.1133292 178.416508,14.3575957 177.839094,14.8020061 C177.18882,15.3023659 176.845012,16.0397142 176.845012,16.9335387 C176.845012,18.2394777 178.117328,18.7398374 179.590463,19.3188901 C181.43063,20.0421374 183.515788,20.8631823 183.515788,23.52919 C183.515788,25.0466447 182.983001,26.3257462 181.974347,27.2286681 C180.987096,28.1115756 179.614598,28.5782748 178.005761,28.5782748 C176.984812,28.5769102 174.180618,28.2534958 174.180618,27.2122927 L174.180618,27.2122927 Z M197.622369,14.0582896 C196.559981,13.0980537 195.054514,12.6108853 193.147407,12.6108853 L188.25168,12.6108853 C187.793573,12.6108853 187.58911,12.7964733 187.545394,13.2522555 C186.020346,27.8518434 186.020346,27.8968758 186.020346,27.9405435 C186.020346,28.3003477 186.180183,28.4409033 186.589564,28.4409033 L191.484836,28.4409033 C193.719357,28.4409033 195.618267,27.7276632 196.977104,26.3789662 C198.605522,24.7609847 199.431571,22.294666 199.431571,19.0477861 C199.431571,16.8220949 198.82228,15.1431605 197.622369,14.0582896 L197.622369,14.0582896 Z M195.599597,25.1226084 C194.289941,26.5113341 192.651505,26.8033623 191.50806,26.8033623 L188.042208,26.8033623 L188.047672,26.7528714 L189.349587,14.2484263 L192.805877,14.2484263 C194.219358,14.2484263 195.331382,14.6296095 196.110982,15.3819686 C197.000328,16.2394033 197.450693,17.5799125 197.450693,19.365742 C197.450693,21.8834613 196.827741,23.8203084 195.599597,25.1226084 L195.599597,25.1226084 Z M213.160646,12.7932892 C213.160646,12.9165596 213.07367,13.0671224 212.899262,13.239974 L206.54406,20.296866 L212.509461,27.8768614 C212.64835,28.0615396 212.659735,28.1415972 212.659735,28.2089183 C212.641975,28.4131561 212.384689,28.4859357 211.68068,28.4859357 L211.521299,28.4859357 C210.881043,28.4859357 210.520842,28.4422679 210.327764,28.2080086 L204.590049,20.8845613 L204.576843,20.8668212 L204.422016,20.8668212 L203.667006,28.024695 C203.625111,28.3180877 203.292688,28.4859357 202.755347,28.4859357 L202.573197,28.4859357 C201.8956,28.4859357 201.75489,28.3048964 201.753979,28.0337924 L203.324564,13.0239095 C203.346878,12.7200547 203.652889,12.565398 204.235313,12.565398 L204.417462,12.565398 C204.842782,12.565398 205.23577,12.6204376 205.237591,13.0175413 L204.508993,19.9748163 L204.503528,20.0253071 L204.665186,20.0253071 L210.985324,12.8692529 C211.165652,12.6700187 211.587329,12.565398 212.203905,12.565398 L212.431592,12.565398 C212.963014,12.5658529 213.160646,12.7054988 213.160646,12.7932892 L213.160646,12.7932892 Z M40.9203778,17.4648298 L41.4645499,16.8766796 L40.8411427,16.372226 C40.7191024,16.2735187 38.0200997,14.1051415 35.0310237,12.7359752 C35.134849,12.4803369 35.2363975,12.2151462 35.3374905,11.9435873 C36.1471458,9.76156393 36.5729207,7.89613179 36.5906802,7.81698398 L36.7678208,7.03505814 L35.9754697,6.91087795 C35.8875825,6.8967769 33.7805663,6.56881383 31.2878481,6.56881383 C30.5155335,6.56881383 29.7942208,6.59974516 29.1248208,6.66297244 C28.7491371,4.00742676 28.0460394,1.72851551 28.0137079,1.62389484 L27.7755472,0.858799287 L27.0264567,1.14536896 C26.8807369,1.20222803 23.6503126,2.45221767 20.9690695,4.35358473 C19.3401961,2.26935892 17.6143281,0.664113856 17.484091,0.544027515 L16.8952923,0 L16.3902823,0.622720458 C16.2586792,0.785109942 14.1125007,3.4574859 12.7518427,6.42780335 C10.2609461,5.42480948 7.93261795,4.8935184 7.82606039,4.86941015 L7.0432722,4.69246475 L6.91849968,5.48394291 C6.8934541,5.63859956 6.36339858,9.05696642 6.67032076,12.32659 C4.02960598,12.6986757 1.75501203,13.3978147 1.62614114,13.4378435 L0.859746423,13.6748321 L1.14799827,14.4230974 C1.17532072,14.4949672 1.83151489,16.1911868 2.9134839,18.1507775 C3.39208215,19.0177645 3.87386802,19.7924124 4.35793075,20.4738114 C2.24317313,22.1263632 0.61885349,23.8748931 0.545082875,23.9544958 L2.84217094e-14,24.5444654 L0.623407231,25.0480093 C0.745447507,25.1467166 3.44445018,27.3150939 6.43307082,28.6842601 C6.32970089,28.9408082 6.22769707,29.2050891 6.12705938,29.476648 C5.31694875,31.6595811 4.8911739,33.5250133 4.87341431,33.6032513 L4.69627376,34.3851772 L5.48862481,34.5102671 C5.57696739,34.5234584 7.68352828,34.8514215 10.1762465,34.8514215 C10.9490164,34.8514215 11.6703291,34.8204902 12.3392737,34.7581726 C12.7149574,37.4128086 13.4180551,39.6926296 13.4508421,39.7963405 L13.6885474,40.561436 L14.4376379,40.2744115 C14.583813,40.2175524 17.8137819,38.9675628 20.495025,37.0661957 C22.1243538,39.1504215 23.8497665,40.7556666 23.9800035,40.8757529 L24.5692577,41.4193256 L25.0738122,40.7966051 C25.2054154,40.6342156 27.3520492,37.9627494 28.7127072,34.9915222 C31.2031485,35.9945161 33.531932,36.5258072 33.6380342,36.5499154 L34.4208224,36.7268608 L34.5460502,35.9353827 C34.5706405,35.780726 35.1011514,32.3623592 34.7942292,29.0927356 C37.4344886,28.7215596 39.7090825,28.0219657 39.8379534,27.9823918 L40.6043481,27.7444935 L40.3165517,26.9962282 C40.2887738,26.9252681 39.6325797,25.2281388 38.551066,23.2685481 C38.0720124,22.4015611 37.5902265,21.6269132 37.1066192,20.9455142 C39.2218322,19.2929624 40.8461518,17.5444325 40.9203778,17.4648298 L40.9203778,17.4648298 Z M34.9231001,8.2864124 C34.7272892,9.01739252 34.3921338,10.1723138 33.9285629,11.4218486 C32.9845722,13.9654956 31.9299257,15.7840759 30.8675377,16.7070122 L20.1575928,16.7070122 L23.4180718,11.0593152 L23.7081451,10.5580457 C24.3306416,9.99309404 25.0214442,9.48591119 25.7108807,9.0888075 C26.8670757,8.42150954 28.7955853,8.06898335 31.2878481,8.06898335 C32.7541529,8.06852847 34.1034266,8.19134405 34.9231001,8.2864124 L34.9231001,8.2864124 Z M22.1780879,23.2125987 L19.286462,23.2125987 L17.8397383,20.7098902 L19.286462,18.2071817 L22.1780879,18.2071817 L23.6243563,20.7098902 L22.1780879,23.2125987 L22.1780879,23.2125987 Z M26.8037787,2.86342241 C27.0392071,3.73859711 27.4048726,5.24013124 27.6362027,6.86857481 C26.5637965,7.07190282 25.6689863,7.37939663 24.959058,7.78878188 C24.483192,8.06261513 24.0082367,8.3823905 23.551041,8.73400695 C23.1853756,7.68052223 22.5665221,6.59110258 21.8584153,5.56309072 C23.6320976,4.31173646 25.7108807,3.33694469 26.8037787,2.86342241 L26.8037787,2.86342241 Z M17.0569501,2.22114244 C17.5933808,2.75698225 18.4276263,3.62487898 19.2787206,4.65016161 C21.0114193,6.7380264 22.0606014,8.5593359 22.3297275,9.93987395 L22.1252645,10.2942196 L16.9745274,19.205172 L13.4189659,13.0607542 C13.2400038,12.2387996 13.1457414,11.3877331 13.1457414,10.592616 C13.1457414,9.16067735 13.8971088,7.15969321 15.3178761,4.80618288 C15.9681505,3.72949966 16.6243446,2.80383411 17.0569501,2.22114244 L17.0569501,2.22114244 Z M8.29555116,6.53606301 C9.17351255,6.77077722 10.6603092,7.20609021 12.1867234,7.81880347 C11.8547556,8.77130649 11.6443728,9.71835104 11.6443728,10.592616 C11.6443728,11.1407374 11.6835349,11.7111475 11.7600378,12.2824673 C11.1293446,12.1605615 10.4180501,12.0986989 9.62888671,12.0986989 C9.1461901,12.0986989 8.654386,12.1209876 8.16394802,12.1610164 C7.96540489,10.0008269 8.15984965,7.71873152 8.29555116,6.53606301 L8.29555116,6.53606301 Z M2.86612499,14.6464398 C4.22997061,14.2811771 7.11157833,13.5997781 9.62888671,13.5997781 C10.6675952,13.5997781 11.5291631,13.7153157 12.1949201,13.9436617 L17.5501203,23.2089598 L10.4449172,23.2125987 C9.64300331,22.9560507 8.85839362,22.612167 8.16850176,22.2141536 C6.92715179,21.499094 5.56785991,19.8483617 4.23771198,17.442541 C3.62933209,16.3426593 3.15483221,15.3119182 2.86612499,14.6464398 L2.86612499,14.6464398 Z M2.22359205,24.382076 C2.86521424,23.7407057 3.98361319,22.6735748 5.28006344,21.6601189 C5.99226863,22.4843479 6.70629532,23.104794 7.41667902,23.515089 C7.89163427,23.7889222 8.4057517,24.0391021 8.93853948,24.2588055 C8.2718717,25.0248108 7.63571399,26.0437252 7.03416472,27.3087256 C5.06330534,26.4003452 3.18124391,25.0907673 2.22359205,24.382076 L2.22359205,24.382076 Z M6.54144987,33.1347327 C6.73817151,32.3992038 7.07605914,31.2351851 7.54190691,29.9815565 C8.48362069,27.4479166 9.53599038,25.63434 10.5961014,24.7141329 L21.3069572,24.7132231 L18.0168788,30.411411 L17.7568602,30.8617348 C17.1343637,31.4266864 16.4435611,31.9338693 15.7541246,32.330973 C14.5974742,32.9982709 12.6689646,33.3507971 10.1767018,33.3507971 C8.71039702,33.351252 7.36157874,33.2288913 6.54144987,33.1347327 L6.54144987,33.1347327 Z M14.6603159,38.5568129 C14.4248874,37.6816382 14.0596773,36.1801041 13.8283473,34.5525703 C14.900298,34.3483325 15.7955636,34.0408387 16.505492,33.6323632 C16.981358,33.3576202 17.4563132,33.0378448 17.9135089,32.6862284 C18.2791743,33.7397131 18.8980278,34.8291327 19.6056793,35.8571446 C17.8319969,37.1094086 15.7541246,38.0832906 14.6603159,38.5568129 L14.6603159,38.5568129 Z M24.4080552,39.1990929 C23.8716245,38.6641628 23.037379,37.7962661 22.1862847,36.7709835 C20.4531306,34.6822089 19.4039485,32.8608994 19.1348224,31.4803614 L19.2841851,31.2219938 L24.4900226,22.2150633 L28.0460394,28.3594811 C28.2245461,29.1814357 28.3188085,30.0325022 28.3188085,30.8285291 C28.3188085,32.259558 27.5678965,34.2605421 26.1471292,36.6149622 C25.4963995,37.6902808 24.8402053,38.6164012 24.4080552,39.1990929 L24.4080552,39.1990929 Z M33.1694541,34.8846272 C32.2919481,34.649913 30.8065176,34.2155097 29.2778265,33.600977 C29.6097943,32.648474 29.8206325,31.7014294 29.8206325,30.8280742 C29.8206325,30.2790431 29.781015,29.708633 29.7049675,29.1373131 C30.3352053,29.2592189 31.0469552,29.3210816 31.8361186,29.3210816 C32.3183598,29.3210816 32.8101639,29.2987928 33.3010573,29.2596738 C33.499145,31.4189536 33.3047003,33.7024136 33.1694541,34.8846272 L33.1694541,34.8846272 Z M38.5984249,26.7733407 C37.2332132,27.1386033 34.3488732,27.8209121 31.8361186,27.8209121 C30.7974101,27.8209121 29.9353868,27.7044647 29.2700852,27.4761187 L23.914885,18.2108207 L31.0196327,18.2071817 C31.8210912,18.4637298 32.6061563,18.8076134 33.2965035,19.2056269 C34.5373981,19.9215962 35.89669,21.5714187 37.226838,23.9772394 C37.8352178,25.077576 38.3092623,26.1078622 38.5984249,26.7733407 L38.5984249,26.7733407 Z M36.1844865,19.7601164 C35.4727367,18.9358875 34.75871,18.3154414 34.0478709,17.9060561 C33.5729157,17.6313131 33.0592536,17.3811332 32.5264658,17.1614298 C33.1926782,16.3954245 33.8288359,15.3765101 34.4303852,14.1115097 C36.4017,15.0194352 38.2837614,16.3299229 39.2405025,17.0381594 C38.5993357,17.6795296 37.4809367,18.7466605 36.1844865,19.7601164 L36.1844865,19.7601164 Z" id="logo"></path>
                </g>
            </g>
        </g>
    </g>
</svg>