<?xml version="1.0" encoding="utf-8"?>
<!-- Generator: Adobe Illustrator 16.0.4, SVG Export Plug-In . SVG Version: 6.00 Build 0)  -->
<!DOCTYPE svg PUBLIC "-//W3C//DTD SVG 1.1//EN" "http://www.w3.org/Graphics/SVG/1.1/DTD/svg11.dtd">
<svg version="1.1" id="Ebene_1" xmlns="http://www.w3.org/2000/svg" xmlns:xlink="http://www.w3.org/1999/xlink" x="0px" y="0px"
	 width="91.057px" height="91.058px" viewBox="0 0 91.057 91.058" enable-background="new 0 0 91.057 91.058" xml:space="preserve">
<path fill="#1D1D1B" d="M89.861,38.395l1.196-1.294l-1.37-1.108c-0.268-0.217-6.195-4.984-12.758-7.994
	c0.227-0.564,0.451-1.144,0.673-1.742c1.778-4.798,2.714-8.9,2.752-9.072l0.389-1.719l-1.74-0.275
	c-0.194-0.031-4.82-0.751-10.294-0.751c-1.696,0-3.28,0.069-4.75,0.207c-0.825-5.837-2.369-10.848-2.44-11.077l-0.523-1.683
	L59.35,2.518c-0.321,0.124-7.414,2.873-13.302,7.052c-3.577-4.582-7.367-8.11-7.652-8.374L37.102,0l-1.108,1.37
	c-0.29,0.357-5.003,6.231-7.991,12.762c-5.469-2.206-10.583-3.374-10.817-3.427l-1.719-0.388l-0.275,1.74
	c-0.054,0.34-1.219,7.855-0.545,15.043C8.849,27.917,3.853,29.454,3.57,29.542l-1.683,0.523l0.632,1.645
	c0.061,0.157,1.501,3.886,3.877,8.194c1.052,1.907,2.11,3.61,3.172,5.108c-4.643,3.633-8.21,7.476-8.373,7.651L0,53.958l1.37,1.107
	c0.268,0.217,6.195,4.984,12.758,7.995c-0.227,0.563-0.451,1.144-0.672,1.741c-1.779,4.798-2.714,8.9-2.753,9.072l-0.388,1.719
	l1.74,0.274c0.194,0.031,4.82,0.752,10.294,0.752c1.696,0,3.28-0.069,4.75-0.206c0.825,5.837,2.369,10.847,2.44,11.076l0.523,1.683
	l1.645-0.632c0.321-0.124,7.414-2.873,13.302-7.052c3.577,4.582,7.367,8.11,7.653,8.374l1.294,1.195l1.108-1.369
	c0.289-0.357,5.002-6.23,7.991-12.762c5.469,2.206,10.583,3.374,10.817,3.427l1.718,0.388l0.275-1.74
	c0.054-0.34,1.219-7.854,0.544-15.042c5.799-0.818,10.794-2.355,11.077-2.443l1.683-0.522l-0.632-1.645
	c-0.061-0.157-1.502-3.886-3.877-8.194c-1.052-1.907-2.11-3.61-3.172-5.108C86.131,42.414,89.699,38.571,89.861,38.395z
	 M76.692,18.216c-0.43,1.608-1.167,4.148-2.185,6.894c-2.072,5.591-4.388,9.589-6.721,11.618h-23.52l7.16-12.416l0.637-1.101
	c1.367-1.243,2.884-2.357,4.398-3.231c2.539-1.466,6.774-2.241,12.247-2.241C71.928,17.739,74.891,18.008,76.692,18.216z
	 M48.704,51.031h-6.35l-3.177-5.502l3.176-5.501l6.349,0l3.177,5.502L48.704,51.031z M58.862,6.294
	c0.517,1.924,1.32,5.225,1.827,8.804c-2.354,0.448-4.319,1.124-5.878,2.023c-1.045,0.603-2.088,1.306-3.092,2.079
	c-0.803-2.315-2.163-4.711-3.717-6.971C51.897,9.478,56.46,7.336,58.862,6.294z M37.458,4.883c1.178,1.176,3.009,3.084,4.878,5.338
	c3.806,4.59,6.11,8.594,6.701,11.629l-0.449,0.779l-11.311,19.59l-7.808-13.508c-0.393-1.806-0.599-3.677-0.599-5.426
	c0-3.147,1.649-7.546,4.769-12.721C35.066,8.199,36.507,6.164,37.458,4.883z M18.217,14.368c1.928,0.516,5.193,1.472,8.545,2.822
	c-0.729,2.093-1.192,4.176-1.192,6.096c0,1.206,0.087,2.46,0.254,3.716c-1.384-0.269-2.947-0.405-4.679-0.405
	c-1.06,0-2.14,0.05-3.218,0.136C17.492,21.987,17.919,16.968,18.217,14.368z M6.294,32.199c2.995-0.803,9.324-2.302,14.851-2.302
	c2.281,0,4.173,0.255,5.634,0.758l11.76,20.368l-15.602,0.008c-1.761-0.563-3.484-1.319-4.999-2.194
	c-2.726-1.574-5.711-5.201-8.632-10.49C7.97,35.927,6.929,33.662,6.294,32.199z M4.884,53.601c1.409-1.409,3.865-3.755,6.711-5.984
	c1.564,1.812,3.131,3.176,4.692,4.077c1.043,0.603,2.171,1.154,3.341,1.637c-1.464,1.683-2.861,3.923-4.181,6.704
	C11.12,58.039,6.986,55.16,4.884,53.601z M14.365,72.843c0.433-1.617,1.175-4.176,2.197-6.931c2.069-5.572,4.38-9.558,6.708-11.582
	h23.52l-7.225,12.527l-0.572,0.99c-1.367,1.241-2.883,2.355-4.398,3.23c-2.54,1.466-6.774,2.241-12.247,2.241
	C19.128,73.32,16.167,73.05,14.365,72.843z M32.195,84.764c-0.517-1.925-1.32-5.225-1.827-8.805c2.354-0.448,4.32-1.123,5.878-2.022
	c1.045-0.604,2.088-1.307,3.092-2.079c0.803,2.315,2.162,4.711,3.716,6.971C39.16,81.581,34.596,83.722,32.195,84.764z
	 M53.599,86.175c-1.178-1.176-3.009-3.084-4.878-5.339c-3.806-4.59-6.11-8.594-6.701-11.629l0.328-0.569l11.432-19.8l7.808,13.508
	c0.393,1.806,0.6,3.677,0.6,5.426c0,3.148-1.649,7.547-4.77,12.722C55.991,82.86,54.549,84.894,53.599,86.175z M72.839,76.691
	c-1.926-0.516-5.189-1.471-8.545-2.822c0.729-2.093,1.192-4.176,1.192-6.097c0-1.205-0.087-2.46-0.254-3.716
	c1.384,0.269,2.946,0.405,4.679,0.405c1.06,0,2.14-0.05,3.218-0.136C73.565,69.072,73.138,74.091,72.839,76.691z M84.762,58.859
	c-2.998,0.804-9.332,2.303-14.851,2.303c-2.281,0-4.173-0.255-5.634-0.758l-11.76-20.369l15.602-0.007
	c1.761,0.563,3.483,1.319,4.999,2.194c2.726,1.574,5.711,5.201,8.632,10.49C83.086,55.131,84.127,57.396,84.762,58.859z
	 M79.461,43.442c-1.563-1.812-3.131-3.176-4.692-4.078c-1.043-0.602-2.172-1.154-3.341-1.636c1.463-1.683,2.86-3.923,4.181-6.705
	c4.328,1.996,8.462,4.876,10.563,6.434C84.764,38.867,82.308,41.213,79.461,43.442z"/>
</svg>
